<?xml version="1.0" encoding="utf-8"?>
<!-- Generator: Adobe Illustrator 24.3.0, SVG Export Plug-In . SVG Version: 6.00 Build 0)  -->
<svg version="1.1" id="Layer_1" xmlns="http://www.w3.org/2000/svg" xmlns:xlink="http://www.w3.org/1999/xlink" x="0px" y="0px"
	 viewBox="0 0 200 66" style="enable-background:new 0 0 200 66;" xml:space="preserve">
<style type="text/css">
	.st0{fill:url(#SVGID_1_);}
	.st1{fill:#6C33FF;}
</style>
<g>
	<g>
		<g>
			
				<image style="overflow:visible;opacity:0.35;" width="126" height="115" xlink:href="44A02E76.png"  transform="matrix(0.24 0 0 0.24 21.48 17.6211)">
			</image>
			<g>
				<linearGradient id="SVGID_1_" gradientUnits="userSpaceOnUse" x1="23.7071" y1="30.4555" x2="47.5372" y2="30.4555">
					<stop  offset="0" style="stop-color:#845EC6"/>
					<stop  offset="0.574" style="stop-color:#52369E"/>
					<stop  offset="0.9005" style="stop-color:#3B238B"/>
				</linearGradient>
				<polygon class="st0" points="31.1,41.1 23.7,26.8 31.5,33.8 47.5,19.8 				"/>
			</g>
		</g>
		<g>
			
				<image style="overflow:visible;opacity:0.35;" width="277" height="186" xlink:href="44A02E7A.png"  transform="matrix(0.24 0 0 0.24 4.2 0.1011)">
			</image>
			<g>
				<path class="st1" d="M62.6,26.2c0.1-11.3-7.7-21.2-18.4-23.4C29.9-0.3,9.5,12.7,6.4,28.7c4-9.2,17-17.7,27.3-18.9
					c11.5-1.3,19.1,6,18.7,16.3l-3.6,0.1l5.9,14.5l11.8-14.4H62.6z"/>
			</g>
		</g>
		<g>
			
				<image style="overflow:visible;opacity:0.35;" width="281" height="193" xlink:href="44A02E7D.png"  transform="matrix(0.24 0 0 0.24 -1.8 21.4611)">
			</image>
			<g>
				<path class="st1" d="M30.9,56.5c-11.4,0.7-18.2-7.7-16.8-18l3.6,0.2l-5.5-15.1l-12,13.6l3.8,0.3C2.9,49,9.6,59.5,19.9,62.7
					C33.6,67,55.2,57,61.6,34.9C56.8,43.9,46.5,55.6,30.9,56.5z"/>
			</g>
		</g>
	</g>
	<g>
		<polygon class="st1" points="100.7,19.7 100.7,13.8 74.8,13.8 74.8,19.7 84.4,19.7 84.4,44.3 91.1,44.3 91.1,19.7 		"/>
		<path class="st1" d="M113.4,25c-0.6-0.5-1.2-1-2-1.4c-1.1-0.5-2.4-0.8-3.8-0.8c-1.9,0-3.6,0.5-5.2,1.4c-1.5,1-2.7,2.2-3.6,3.9
			c-0.9,1.6-1.3,3.5-1.3,5.6s0.4,4,1.3,5.6c0.9,1.6,2.1,2.9,3.6,3.9c1.5,1,3.2,1.4,5.2,1.4c1.4,0,2.7-0.3,3.8-0.8
			c0.7-0.4,1.4-0.8,1.9-1.3v1.7h6.5v-21h-6.5V25z M109,38.7c-0.9,0-1.7-0.2-2.4-0.6c-0.7-0.4-1.3-1-1.7-1.8
			c-0.4-0.7-0.6-1.6-0.6-2.5c0-1,0.2-1.8,0.6-2.6c0.4-0.7,1-1.3,1.7-1.7c0.7-0.4,1.5-0.6,2.4-0.6s1.7,0.2,2.4,0.6
			c0.7,0.4,1.3,1,1.6,1.7c0.4,0.7,0.6,1.6,0.6,2.6c0,1.4-0.4,2.6-1.3,3.6C111.5,38.3,110.4,38.7,109,38.7z"/>
		<path class="st1" d="M131.1,28.4c0.4-0.2,0.9-0.3,1.7-0.3c0.8,0,1.6,0.2,2.4,0.5c0.8,0.3,1.6,0.9,2.2,1.6l3.8-3.8
			c-1-1.2-2.2-2.1-3.7-2.7c-1.5-0.6-3.2-0.9-4.9-0.9c-1.7,0-3.2,0.3-4.4,0.9c-1.3,0.6-2.2,1.4-2.9,2.4s-1,2.2-1,3.5
			c0,1.3,0.2,2.3,0.7,3.1c0.5,0.8,1.1,1.5,1.9,1.9c0.8,0.5,1.6,0.8,2.5,1.1c0.9,0.3,1.7,0.5,2.5,0.7c0.8,0.2,1.4,0.5,1.9,0.7
			c0.5,0.3,0.8,0.7,0.8,1.2c0,0.4-0.2,0.7-0.6,1c-0.4,0.2-1,0.3-1.8,0.3c-1.1,0-2.2-0.2-3.1-0.6c-0.9-0.4-1.8-1-2.5-1.7l-3.8,3.8
			c0.7,0.8,1.6,1.5,2.6,2.1c1,0.6,2.1,1,3.3,1.4c1.2,0.3,2.4,0.5,3.6,0.5c2.6,0,4.7-0.6,6.2-1.8c1.5-1.2,2.3-2.8,2.3-4.9
			c0-1.3-0.2-2.4-0.7-3.2c-0.5-0.8-1.1-1.5-1.9-2c-0.8-0.5-1.6-0.9-2.5-1.2c-0.9-0.3-1.7-0.5-2.5-0.7c-0.8-0.2-1.4-0.4-1.9-0.7
			c-0.5-0.3-0.7-0.6-0.7-1C130.6,28.9,130.8,28.6,131.1,28.4z"/>
		<polygon class="st1" points="165.1,23.3 157.7,23.3 151,32.7 151,12.9 144.3,12.9 144.3,44.3 151,44.3 151,34.2 157.8,44.3 
			165.5,44.3 157.4,33.2 		"/>
		<rect x="167.9" y="12.9" class="st1" width="6.6" height="31.4"/>
		<polygon class="st1" points="192.6,23.3 188.3,36 184.2,23.3 177,23.3 185,42.8 180.3,53.1 187.1,53.1 190.8,44.4 199.8,23.3 		
			"/>
	</g>
</g>
</svg>
